<svg width="630" height="574" viewBox="0 0 630 574" fill="none" xmlns="http://www.w3.org/2000/svg">
<path fill-rule="evenodd" clip-rule="evenodd" d="M181.746 -240.125C185.453 -275.276 192.63 -310.131 203.277 -344.134L553.866 -694.723C587.869 -705.37 622.724 -712.547 657.875 -716.254L181.746 -240.125ZM346.745 205.888C361.089 219.441 375.998 232.05 391.394 243.717L1141.72 -506.606C1130.05 -522.002 1117.44 -536.911 1103.89 -551.255L346.745 205.888ZM500.784 307.7C482.114 299.59 463.812 290.366 445.979 280.027L1178.03 -452.021C1188.37 -434.188 1197.59 -415.886 1205.7 -397.216L500.784 307.7ZM567.76 331.618C590.114 337.957 612.8 342.816 635.662 346.194L1244.19 -262.338C1240.82 -285.2 1235.96 -307.886 1229.62 -330.24L567.76 331.618ZM812.215 343.015C782.014 348.597 751.427 351.572 720.814 351.937L1249.94 -177.186C1249.57 -146.573 1246.6 -115.986 1241.01 -85.7854L812.215 343.015ZM947.272 298.852C999.978 273.408 1049.38 238.825 1093.1 195.102C1136.82 151.379 1171.41 101.978 1196.85 49.2719L947.272 298.852ZM1057.05 -595.306L302.694 159.045C289.977 143.803 278.239 128.021 267.48 111.781L1009.78 -630.52C1026.02 -619.761 1041.8 -608.023 1057.05 -595.306ZM234.262 54.104L952.104 -663.738C933.193 -673.104 913.844 -681.285 894.167 -688.279L209.721 -3.8326C216.715 15.8438 224.896 35.193 234.262 54.104ZM189.87 -74.8765C184.92 -98.863 181.627 -123.123 179.989 -147.474L750.526 -718.011C774.877 -716.373 799.137 -713.08 823.123 -708.13L189.87 -74.8765Z" fill="#4044ED"/>
</svg>
